<svg width="0" height="0" xmlns="http://www.w3.org/2000/svg" shape-rendering="geometricPrecision" image-rendering="optimizeQuality">
    <symbol viewBox="0 0 24 24" id="hide-sidebar">
        <path d="M20 24H4c-2.2 0-4-1.8-4-4V4c0-2.2 1.8-4 4-4h16c2.2 0 4 1.8 4 4v16c0 2.2-1.8 4-4 4zM4 2c-1.1 0-2 .9-2 2v16c0 1.1.9 2 2 2h16c1.1 0 2-.9 2-2V4c0-1.1-.9-2-2-2H4z"></path>
        <path d="M8 24a.94.94 0 0 1-1-1V1a.94.94 0 0 1 1-1 .94.94 0 0 1 1 1v22a.94.94 0 0 1-1 1zm6-11c-.3 0-.5-.1-.7-.3-.4-.4-.4-1 0-1.4l3-3c.4-.4 1-.4 1.4 0s.4 1 0 1.4l-3 3c-.2.2-.4.3-.7.3z"></path>
        <path d="M17 16c-.3 0-.5-.1-.7-.3l-3-3c-.4-.4-.4-1 0-1.4s1-.4 1.4 0l3 3c.4.4.4 1 0 1.4-.2.2-.4.3-.7.3z"></path>
    </symbol>
    <symbol viewBox="0 0 300.005 300.005" id="transactions">
        <path d="M150 0C67.159 0 .002 67.159.002 150s67.157 150.005 149.997 150.005S300.003 232.841 300.003 150 232.841 0 150 0zm63.129 195.303c0 2.944-3.359 5.428-7.33 5.428H75.523c-3.973 0-7.33-2.485-7.33-5.428v-63.295c0-2.941 3.356-5.428 7.33-5.428h130.275c3.971 0 7.33 2.487 7.33 5.428v63.295zm25.936-25.942h0c-.001 2.944-3.36 5.431-7.331 5.431h-3.045v-42.785c0-11.573-10.268-20.99-22.891-20.99H94.13v-4.949c0-2.941 3.356-5.428 7.33-5.428h130.275c3.971 0 7.33 2.487 7.33 5.428v63.293zm-99.72-11.155c-6.069-.726-8.956-1.538-8.956-4.168 0-4.085 5.981-4.526 8.554-4.526 3.802 0 8.004 1.831 9.366 4.082l.599.993 8.948-4.142-.584-1.19c-3.081-6.3-8.525-8.23-12.758-9.018v-5.592h-10.463v5.561c-9.028 1.434-14.376 6.544-14.376 13.832 0 12.029 11.246 13.285 18.682 14.115 6.57.778 9.762 2.404 9.762 4.972 0 5.065-7.213 5.457-9.425 5.457-4.977 0-9.765-2.456-11.137-5.714l-.506-1.198-9.703 4.113.511 1.196c2.679 6.277 8.406 10.24 16.192 11.249v6.022h10.463v-6.323c7.496-.954 14.688-5.773 14.688-14.804.003-12.474-11.947-13.944-19.857-14.917z"></path>
    </symbol>
    <symbol viewBox="0 0 56 56" id="carts">
        <path d="M13.164 4.656h30.164c-.141-1.969-1.266-3.023-3.422-3.023h-23.32c-2.156 0-3.281 1.055-3.422 3.023zm-5.062 6.492h39.844c-.352-2.133-1.383-3.305-3.727-3.305H11.805c-2.344 0-3.352 1.172-3.703 3.305zm2.133 43.219H45.79c4.875 0 7.336-2.437 7.336-7.266v-24.89c0-4.828-2.461-7.266-7.336-7.266H10.234c-4.898 0-7.359 2.414-7.359 7.266v24.891c0 4.828 2.461 7.266 7.359 7.266z"></path>
    </symbol>
    <symbol viewBox="0 0 16 16" id="profile">
        <path d="M8 7a3 3 0 1 0 0-6 3 3 0 1 0 0 6zm6 5a3 3 0 0 0-3-3H5a3 3 0 0 0-3 3v3h12v-3z"></path>
    </symbol>
</svg>
