<svg width="0" height="0" class="hidden">
    <symbol xmlns="http://www.w3.org/2000/svg" viewBox="0 0 24 24" id="hide-sidebar">
        <path d="M20 24H4c-2.2 0-4-1.8-4-4V4c0-2.2 1.8-4 4-4h16c2.2 0 4 1.8 4 4v16c0 2.2-1.8 4-4 4zM4 2c-1.1 0-2 .9-2 2v16c0 1.1.9 2 2 2h16c1.1 0 2-.9 2-2V4c0-1.1-.9-2-2-2H4z"></path>
        <path d="M8 24a.94.94 0 0 1-1-1V1a.94.94 0 0 1 1-1 .94.94 0 0 1 1 1v22a.94.94 0 0 1-1 1zm6-11c-.3 0-.5-.1-.7-.3-.4-.4-.4-1 0-1.4l3-3c.4-.4 1-.4 1.4 0s.4 1 0 1.4l-3 3c-.2.2-.4.3-.7.3z"></path>
        <path d="M17 16c-.3 0-.5-.1-.7-.3l-3-3c-.4-.4-.4-1 0-1.4s1-.4 1.4 0l3 3c.4.4.4 1 0 1.4-.2.2-.4.3-.7.3z"></path>
    </symbol>
    <symbol xmlns="http://www.w3.org/2000/svg" viewBox="0 0 256 188" id="inventories">
        <path d="M63 133c-13 0-23.5 10.5-23.5 23.5S50 180 63 180s23.5-10.5 23.5-23.5S76 133 63 133zm0 32.4c-4.9 0-9-4.1-9-9s4.1-9 9-9 9 4.1 9 9a8.96 8.96 0 0 1-9 9zM210.8 132c-13 0-23.5 10.5-23.5 23.5s10.5 23.5 23.5 23.5 23.5-10.5 23.5-23.5-10.5-23.5-23.5-23.5zm0 32.4c-4.9 0-9-4.1-9-9s4.1-9 9-9 9 4.1 9 9a8.96 8.96 0 0 1-9 9zM-.5 143.1c0 4.6 3.7 8.2 8.2 8.2h22.6c.9 0 1.7-.7 1.9-1.5 2.6-14.7 15.4-24.9 30.8-24.9s28.3 10.2 30.8 24.9c.2.9.9 1.5 1.9 1.5H99h30.9V115H-.5v28.1zm254.1-8.6h-5v-22c0-7.5-6.1-13.6-13.7-13.6h-24.3c-.5 0-1-.3-1.4-.6l-38-37c-1.7-1.7-4.1-2.7-6.6-2.8h-27.5v92.8H178c.9 0 1.7-.7 1.9-1.5 2.6-14.7 15.4-25.9 30.8-25.9s28.3 11.2 30.8 25.9c.2.9.9 1.5 1.9 1.5h3.2a8.64 8.64 0 0 0 8.7-8.7v-6.3c.2-.9-.7-1.8-1.7-1.8zM191.1 99h-41.4a1.97 1.97 0 0 1-1.9-1.9V70.7a1.97 1.97 0 0 1 1.9-1.9h13.9c.5 0 1 .3 1.5.6l27.5 26.3c.9 1.3.1 3.3-1.5 3.3zm-133.3 2.5H17.1V60.8h15.7v13h9.3v-13h15.7v40.7zm53.1 0H70.3V60.8H86v13h9.3v-13H111v40.7zM84.7 48.3H44V7.6h15.7v13H69v-13h15.7v40.7z"></path>
    </symbol>
    <symbol xmlns="http://www.w3.org/2000/svg" viewBox="0 -33.95 122.88 122.88" id="purchases">
        <path d="M120.11 5.33c-.76-3.61-2.9-5.24-6.12-5.32H51.31C47 .01 39.75-.27 36.28 2.65c-5.9 4.21-10.49 11.67-15.47 16.53-4.05.52-13.42 1.91-15.58 3.83-2.49 2.22-2.46 9.37-2.43 12.4-4.63-.09-2.76 11.12.24 11.76h6.45c-4.14-24.65 31-21.59 25.7 0h46.66c-5.43-20.67 29.19-25.49 25.86.26 2.58-.26 3.9-.52 6.48-.78 4.95-.5 8.52-.33 8.52-6.81.46-12.84.1-24.85-2.6-34.51h0zm-25.1 34.04a5.14 5.14 0 1 1 0 10.28 5.14 5.14 0 0 1-5.14-5.14c0-2.83 2.3-5.14 5.14-5.14h0zM47.68 4.47h-6.44c-4.27 0-9.97 6.17-13.2 12.25-.33.62-2.9 4.87-1.18 4.87h20.81v-.65V5.12v-.65h.01zm-25.56 34.9a5.14 5.14 0 1 1 0 10.28 5.14 5.14 0 0 1-5.14-5.14c0-2.83 2.3-5.14 5.14-5.14h0zm0-5.32a10.46 10.46 0 1 1 0 20.92 10.46 10.46 0 0 1-10.46-10.46 10.47 10.47 0 0 1 10.46-10.46h0zm72.89 0a10.46 10.46 0 1 1 0 20.92 10.46 10.46 0 0 1-10.46-10.46c0-5.77 4.68-10.46 10.46-10.46h0z" fill-rule="evenodd"></path>
    </symbol>
    <symbol xmlns="http://www.w3.org/2000/svg" viewBox="0 0 512 512" id="sales">
        <path d="M77.609 448h52.781c7.516 0 13.609-6.094 13.609-13.609V315.094c0-7.516-6.094-13.609-13.609-13.609H77.609c-7.516 0-13.609 6.094-13.609 13.609v119.297C64 441.906 70.094 448 77.609 448zm120 0h52.781c7.516 0 13.609-6.094 13.609-13.609V235.094c0-7.516-6.094-13.609-13.609-13.609h-52.781c-7.516 0-13.609 6.094-13.609 13.609v199.297c0 7.515 6.094 13.609 13.609 13.609zm120 0h52.781c7.516 0 13.609-6.094 13.609-13.609V139.094c0-7.516-6.094-13.609-13.609-13.609h-52.781c-7.516 0-13.609 6.094-13.609 13.609v295.297c0 7.515 6.094 13.609 13.609 13.609zm120 0h52.781c7.516 0 13.609-6.094 13.609-13.609V43.094c0-7.516-6.094-13.609-13.609-13.609h-52.781c-7.516 0-13.609 6.094-13.609 13.609v391.297c0 7.515 6.094 13.609 13.609 13.609zm60.782 34H45.609C38.094 482 32 475.906 32 468.391V13.609C32 6.094 25.906 0 18.391 0H13.61C6.094 0 0 6.094 0 13.609V498.39C0 505.906 6.094 512 13.609 512H498.39c7.516 0 13.609-6.094 13.609-13.609v-2.781c.001-7.516-6.093-13.61-13.608-13.61z"></path>
    </symbol>
    <symbol xmlns="http://www.w3.org/2000/svg" viewBox="0 0 16 16" id="users">
        <path d="M8 7a3 3 0 1 0 0-6 3 3 0 1 0 0 6zm6 5a3 3 0 0 0-3-3H5a3 3 0 0 0-3 3v3h12v-3z"></path>
    </symbol>
</svg>